<mxfile host="65bd71144e">
    <diagram id="1lin1rByFeLS2CHGnY1c" name="pageWithNumber">
        <mxGraphModel dx="3197" dy="1923" grid="0" gridSize="10" guides="1" tooltips="1" connect="1" arrows="1" fold="0" page="0" pageScale="1" pageWidth="850" pageHeight="1100" math="0" shadow="0">
            <root>
                <mxCell id="0"/>
                <mxCell id="1" parent="0"/>
                <UserObject label="%description%&lt;br&gt;&lt;br&gt;&lt;i&gt;%owner%&lt;/i&gt;" owner="nate" description="This is a long task description like we would expect" status="todo" function="" phase="" estimated_duration="" estimated_completion_date="" notes="" wbs="" oqe="" placeholders="1" id="2">
                    <mxCell style="whiteSpace=wrap;shape=mxgraph.flowchart.process;html=1;" parent="1" vertex="1">
                        <mxGeometry x="20" y="190" width="200" height="100" as="geometry"/>
                    </mxCell>
                </UserObject>
                <UserObject label="%description%&lt;br&gt;&lt;br&gt;&lt;i&gt;%owner%&lt;/i&gt;" owner="alan" description="Cell B" status="done" function="mechanical" phase="detail design" estimated_duration="" estimated_completion_date="" notes="" wbs="" oqe="" placeholders="1" id="3">
                    <mxCell style="whiteSpace=wrap;shape=mxgraph.flowchart.decision;fillColor=#d5e8d4;strokeColor=#82b366;html=1;" parent="1" vertex="1">
                        <mxGeometry x="280" y="50" width="100" height="100" as="geometry"/>
                    </mxCell>
                </UserObject>
                <UserObject label="%description%&lt;br&gt;&lt;br&gt;&lt;i&gt;%owner%&lt;/i&gt;" owner="" description="Cell C" status="doing" function="" phase="" estimated_duration="" estimated_completion_date="" notes="" wbs="" oqe="" placeholders="1" id="4">
                    <mxCell style="whiteSpace=wrap;shape=mxgraph.flowchart.decision;fillColor=#fff2cc;strokeColor=#d6b656;html=1;" parent="1" vertex="1">
                        <mxGeometry x="440" y="80" width="100" height="100" as="geometry"/>
                    </mxCell>
                </UserObject>
                <UserObject label="%description%&lt;br&gt;&lt;br&gt;&lt;i&gt;%owner%&lt;/i&gt;" owner="alan" description="Cell D - I would like to see what a long description on a predefined process looks like" status="waiting" function="" phase="" estimated_duration="" estimated_completion_date="" notes="" wbs="" oqe="" placeholders="1" id="5">
                    <mxCell style="whiteSpace=wrap;shape=mxgraph.flowchart.predefined_process;fillColor=#f5f5f5;strokeColor=#666666;html=1;" parent="1" vertex="1">
                        <mxGeometry x="600" y="190" width="200" height="100" as="geometry"/>
                    </mxCell>
                </UserObject>
                <UserObject label="%description%&lt;br&gt;&lt;br&gt;&lt;i&gt;%owner%&lt;/i&gt;" owner="" description="Cell E" status="stop" function="" phase="" estimated_duration="" estimated_completion_date="" notes="" wbs="" oqe="" placeholders="1" id="6">
                    <mxCell style="whiteSpace=wrap;shape=mxgraph.flowchart.data;fillColor=#f8cecc;strokeColor=#b85450;html=1;" parent="1" vertex="1">
                        <mxGeometry x="600" y="30" width="200" height="100" as="geometry"/>
                    </mxCell>
                </UserObject>
                <UserObject label="%description%&lt;br&gt;&lt;br&gt;&lt;i&gt;%owner%&lt;/i&gt;" owner="" description="" status="waiting" function="" phase="" estimated_duration="" estimated_completion_date="" notes="" wbs="" oqe="" placeholders="1" id="7">
                    <mxCell style="whiteSpace=wrap;shape=mxgraph.flowchart.summing_function;fillColor=#f5f5f5;strokeColor=#666666;html=1;" parent="1" vertex="1">
                        <mxGeometry x="860" y="190" width="100" height="100" as="geometry"/>
                    </mxCell>
                </UserObject>
                <UserObject label="%description%&lt;br&gt;&lt;br&gt;&lt;i&gt;%owner%&lt;/i&gt;" owner="" description="Done" status="" function="" phase="" estimated_duration="" estimated_completion_date="" notes="" wbs="" oqe="" placeholders="1" id="8">
                    <mxCell style="whiteSpace=wrap;shape=mxgraph.flowchart.terminator;html=1;" parent="1" vertex="1">
                        <mxGeometry x="1020" y="215" width="100" height="50" as="geometry"/>
                    </mxCell>
                </UserObject>
                <UserObject label="%description%&lt;br&gt;&lt;br&gt;&lt;i&gt;%owner%&lt;/i&gt;" owner="" description="Repo" status="" function="" phase="" estimated_duration="" estimated_completion_date="" notes="" wbs="" oqe="" placeholders="1" id="9">
                    <mxCell style="whiteSpace=wrap;shape=mxgraph.flowchart.document;html=1;" parent="1" vertex="1">
                        <mxGeometry x="280" y="330" width="100" height="100" as="geometry"/>
                    </mxCell>
                </UserObject>
                <UserObject label="%description%&lt;br&gt;&lt;br&gt;&lt;i&gt;%owner%&lt;/i&gt;" owner="" description="" status="" function="" phase="" estimated_duration="" estimated_completion_date="" notes="" wbs="" oqe="" placeholders="1" id="10">
                    <mxCell style="whiteSpace=wrap;shape=mxgraph.flowchart.or;html=1;" parent="1" vertex="1">
                        <mxGeometry x="650" y="350" width="100" height="100" as="geometry"/>
                    </mxCell>
                </UserObject>
                <UserObject label="%description%&lt;br&gt;&lt;br&gt;&lt;i&gt;%owner%&lt;/i&gt;" owner="" description="start" status="" function="" phase="" estimated_duration="" estimated_completion_date="" notes="" wbs="" oqe="" placeholders="1" id="11">
                    <mxCell style="whiteSpace=wrap;shape=mxgraph.flowchart.start_1;html=1;" parent="1" vertex="1">
                        <mxGeometry x="440" y="360" width="100" height="100" as="geometry"/>
                    </mxCell>
                </UserObject>
                <mxCell id="12" value="" style="edgeStyle=orthogonalEdgeStyle;rounded=0;orthogonalLoop=1;jettySize=auto;html=1;" parent="1" source="2" target="3" edge="1">
                    <mxGeometry relative="1" as="geometry">
                        <Array as="points">
                            <mxPoint x="232" y="206.25"/>
                            <mxPoint x="268" y="100"/>
                        </Array>
                    </mxGeometry>
                </mxCell>
                <mxCell id="13" value="" style="edgeStyle=orthogonalEdgeStyle;rounded=0;orthogonalLoop=1;jettySize=auto;html=1;" parent="1" source="2" target="4" edge="1">
                    <mxGeometry relative="1" as="geometry">
                        <Array as="points">
                            <mxPoint x="234" y="228.75"/>
                            <mxPoint x="250" y="210"/>
                            <mxPoint x="410" y="210"/>
                            <mxPoint x="428" y="152.5"/>
                        </Array>
                    </mxGeometry>
                </mxCell>
                <mxCell id="14" value="" style="edgeStyle=orthogonalEdgeStyle;rounded=0;orthogonalLoop=1;jettySize=auto;html=1;" parent="1" source="2" target="5" edge="1">
                    <mxGeometry relative="1" as="geometry">
                        <Array as="points">
                            <mxPoint x="234" y="251.25"/>
                            <mxPoint x="250" y="270"/>
                            <mxPoint x="410" y="270"/>
                            <mxPoint x="410" y="240"/>
                            <mxPoint x="570" y="240"/>
                            <mxPoint x="588" y="262.5"/>
                        </Array>
                    </mxGeometry>
                </mxCell>
                <mxCell id="15" value="" style="edgeStyle=orthogonalEdgeStyle;rounded=0;orthogonalLoop=1;jettySize=auto;html=1;" parent="1" source="2" target="9" edge="1">
                    <mxGeometry relative="1" as="geometry">
                        <Array as="points">
                            <mxPoint x="232" y="273.75"/>
                            <mxPoint x="268" y="380"/>
                        </Array>
                    </mxGeometry>
                </mxCell>
                <mxCell id="16" value="" style="edgeStyle=orthogonalEdgeStyle;rounded=0;orthogonalLoop=1;jettySize=auto;html=1;" parent="1" source="5" target="7" edge="1">
                    <mxGeometry relative="1" as="geometry">
                        <Array as="points">
                            <mxPoint x="812" y="240"/>
                            <mxPoint x="846" y="240"/>
                        </Array>
                    </mxGeometry>
                </mxCell>
                <mxCell id="17" value="" style="edgeStyle=orthogonalEdgeStyle;rounded=0;orthogonalLoop=1;jettySize=auto;html=1;" parent="1" source="6" target="7" edge="1">
                    <mxGeometry relative="1" as="geometry">
                        <Array as="points">
                            <mxPoint x="812" y="80"/>
                            <mxPoint x="848" y="210"/>
                        </Array>
                    </mxGeometry>
                </mxCell>
                <mxCell id="18" value="" style="edgeStyle=orthogonalEdgeStyle;rounded=0;orthogonalLoop=1;jettySize=auto;html=1;" parent="1" source="7" target="8" edge="1">
                    <mxGeometry relative="1" as="geometry">
                        <Array as="points">
                            <mxPoint x="972" y="240"/>
                            <mxPoint x="1008" y="240"/>
                        </Array>
                    </mxGeometry>
                </mxCell>
                <mxCell id="19" value="" style="edgeStyle=orthogonalEdgeStyle;rounded=0;orthogonalLoop=1;jettySize=auto;html=1;" parent="1" source="9" target="10" edge="1">
                    <mxGeometry relative="1" as="geometry">
                        <Array as="points">
                            <mxPoint x="392" y="380"/>
                            <mxPoint x="410" y="300"/>
                            <mxPoint x="570" y="300"/>
                            <mxPoint x="588" y="377.5"/>
                        </Array>
                    </mxGeometry>
                </mxCell>
                <mxCell id="20" value="" style="edgeStyle=orthogonalEdgeStyle;rounded=0;orthogonalLoop=1;jettySize=auto;html=1;" parent="1" source="10" target="7" edge="1">
                    <mxGeometry relative="1" as="geometry">
                        <Array as="points">
                            <mxPoint x="812" y="400"/>
                            <mxPoint x="848" y="270"/>
                        </Array>
                    </mxGeometry>
                </mxCell>
                <mxCell id="21" value="" style="edgeStyle=orthogonalEdgeStyle;rounded=0;orthogonalLoop=1;jettySize=auto;html=1;" parent="1" source="11" target="10" edge="1">
                    <mxGeometry relative="1" as="geometry">
                        <Array as="points">
                            <mxPoint x="552" y="410"/>
                            <mxPoint x="588" y="422.5"/>
                        </Array>
                    </mxGeometry>
                </mxCell>
                <mxCell id="22" value="Yes" style="edgeStyle=orthogonalEdgeStyle;rounded=0;orthogonalLoop=1;jettySize=auto;html=1;" parent="1" source="3" target="4" edge="1">
                    <mxGeometry relative="1" as="geometry">
                        <Array as="points">
                            <mxPoint x="392" y="122.5"/>
                            <mxPoint x="428" y="107.5"/>
                        </Array>
                    </mxGeometry>
                </mxCell>
                <mxCell id="23" value="Pass" style="edgeStyle=orthogonalEdgeStyle;rounded=0;orthogonalLoop=1;jettySize=auto;html=1;" parent="1" source="4" target="6" edge="1">
                    <mxGeometry relative="1" as="geometry">
                        <Array as="points">
                            <mxPoint x="552" y="107.5"/>
                            <mxPoint x="588" y="102.5"/>
                        </Array>
                    </mxGeometry>
                </mxCell>
                <mxCell id="24" value="No" style="edgeStyle=orthogonalEdgeStyle;rounded=0;orthogonalLoop=1;jettySize=auto;html=1;" parent="1" source="3" target="6" edge="1">
                    <mxGeometry relative="1" as="geometry">
                        <Array as="points">
                            <mxPoint x="392" y="77.5"/>
                            <mxPoint x="410" y="20"/>
                            <mxPoint x="570" y="20"/>
                            <mxPoint x="588" y="57.5"/>
                        </Array>
                    </mxGeometry>
                </mxCell>
                <mxCell id="25" value="Fail" style="edgeStyle=orthogonalEdgeStyle;rounded=0;orthogonalLoop=1;jettySize=auto;html=1;" parent="1" source="4" target="5" edge="1">
                    <mxGeometry relative="1" as="geometry">
                        <Array as="points">
                            <mxPoint x="552" y="152.5"/>
                            <mxPoint x="588" y="217.5"/>
                        </Array>
                    </mxGeometry>
                </mxCell>
            </root>
        </mxGraphModel>
    </diagram>
</mxfile>